<svg width="156" height="71" viewBox="0 0 156 71" fill="none" xmlns="http://www.w3.org/2000/svg">
<g clip-path="url(#clip0_1_3)">
<path fill-rule="evenodd" clip-rule="evenodd" d="M78 40C89.0457 40 98 31.0457 98 20C98 8.95431 89.0457 0 78 0C66.9543 0 58 8.95431 58 20C58 31.0457 66.9543 40 78 40ZM84.2393 9.31684C84.543 8.23805 83.4961 7.60013 82.54 8.2813L69.1931 17.7896C68.1562 18.5283 68.3193 20 69.4381 20H72.9527V19.9728H79.8025L74.2212 21.9421L71.7607 30.6832C71.457 31.762 72.5038 32.3999 73.46 31.7187L86.8069 22.2105C87.8438 21.4718 87.6806 20 86.5619 20H81.2321L84.2393 9.31684Z" fill="#8F10BC"/>
<path d="M0.612061 66.28V52.28H9.61206V54.68H3.25206V58.02H9.05206V60.42H3.25206V63.88H9.73206V66.28H0.612061Z" fill="black"/>
<path d="M16.5463 66.56C15.4663 66.56 14.5129 66.3666 13.6863 65.98C12.8596 65.5933 12.2129 65.04 11.7463 64.32C11.2796 63.6 11.0463 62.7333 11.0463 61.72V61.16H13.6463V61.72C13.6463 62.56 13.9063 63.1933 14.4263 63.62C14.9463 64.0333 15.6529 64.24 16.5463 64.24C17.4529 64.24 18.1263 64.06 18.5663 63.7C19.0196 63.34 19.2463 62.88 19.2463 62.32C19.2463 61.9333 19.1329 61.62 18.9063 61.38C18.6929 61.14 18.3729 60.9466 17.9463 60.8C17.5329 60.64 17.0263 60.4933 16.4263 60.36L15.9663 60.26C15.0063 60.0466 14.1796 59.78 13.4863 59.46C12.8063 59.1266 12.2796 58.6933 11.9063 58.16C11.5463 57.6266 11.3663 56.9333 11.3663 56.08C11.3663 55.2266 11.5663 54.5 11.9663 53.9C12.3796 53.2866 12.9529 52.82 13.6863 52.5C14.4329 52.1666 15.3063 52 16.3063 52C17.3063 52 18.1929 52.1733 18.9663 52.52C19.7529 52.8533 20.3663 53.36 20.8063 54.04C21.2596 54.7066 21.4863 55.5466 21.4863 56.56V57.16H18.8863V56.56C18.8863 56.0266 18.7796 55.6 18.5663 55.28C18.3663 54.9466 18.0729 54.7066 17.6863 54.56C17.2996 54.4 16.8396 54.32 16.3063 54.32C15.5063 54.32 14.9129 54.4733 14.5263 54.78C14.1529 55.0733 13.9663 55.48 13.9663 56C13.9663 56.3466 14.0529 56.64 14.2263 56.88C14.4129 57.12 14.6863 57.32 15.0463 57.48C15.4063 57.64 15.8663 57.78 16.4263 57.9L16.8863 58C17.8863 58.2133 18.7529 58.4866 19.4863 58.82C20.2329 59.1533 20.8129 59.5933 21.2263 60.14C21.6396 60.6866 21.8463 61.3866 21.8463 62.24C21.8463 63.0933 21.6263 63.8466 21.1863 64.5C20.7596 65.14 20.1463 65.6466 19.3463 66.02C18.5596 66.38 17.6263 66.56 16.5463 66.56Z" fill="black"/>
<path d="M23.8152 66.28V52.28H29.5752C30.4552 52.28 31.2285 52.46 31.8952 52.82C32.5752 53.1666 33.1019 53.66 33.4752 54.3C33.8619 54.94 34.0552 55.7 34.0552 56.58V56.86C34.0552 57.7266 33.8552 58.4866 33.4552 59.14C33.0685 59.78 32.5352 60.28 31.8552 60.64C31.1885 60.9866 30.4285 61.16 29.5752 61.16H26.4552V66.28H23.8152ZM26.4552 58.76H29.3152C29.9419 58.76 30.4485 58.5866 30.8352 58.24C31.2219 57.8933 31.4152 57.42 31.4152 56.82V56.62C31.4152 56.02 31.2219 55.5466 30.8352 55.2C30.4485 54.8533 29.9419 54.68 29.3152 54.68H26.4552V58.76Z" fill="black"/>
<path d="M33.8513 66.28L37.5313 52.28H42.1313L45.8113 66.28H43.0913L42.3313 63.2H37.3313L36.5713 66.28H33.8513ZM37.9513 60.76H41.7113L40.0113 53.94H39.6513L37.9513 60.76Z" fill="black"/>
<path d="M52.6899 66.56C50.9565 66.56 49.5832 66.08 48.5699 65.12C47.5565 64.1466 47.0499 62.76 47.0499 60.96V57.6C47.0499 55.8 47.5565 54.42 48.5699 53.46C49.5832 52.4866 50.9565 52 52.6899 52C54.4099 52 55.7365 52.4733 56.6699 53.42C57.6165 54.3533 58.0899 55.64 58.0899 57.28V57.4H55.4899V57.2C55.4899 56.3733 55.2565 55.6933 54.7899 55.16C54.3365 54.6266 53.6365 54.36 52.6899 54.36C51.7565 54.36 51.0232 54.6466 50.4899 55.22C49.9565 55.7933 49.6899 56.5733 49.6899 57.56V61C49.6899 61.9733 49.9565 62.7533 50.4899 63.34C51.0232 63.9133 51.7565 64.2 52.6899 64.2C53.6365 64.2 54.3365 63.9333 54.7899 63.4C55.2565 62.8533 55.4899 62.1733 55.4899 61.36V61H58.0899V61.28C58.0899 62.92 57.6165 64.2133 56.6699 65.16C55.7365 66.0933 54.4099 66.56 52.6899 66.56ZM52.6899 70.56C52.2632 70.56 51.8432 70.52 51.4299 70.44C51.0299 70.36 50.6832 70.2733 50.3899 70.18L50.7899 68.68C51.0432 68.76 51.3099 68.8333 51.5899 68.9C51.8832 68.9666 52.2099 69 52.5699 69C52.8365 69 53.0565 68.9533 53.2299 68.86C53.4032 68.7666 53.4899 68.62 53.4899 68.42C53.4899 68.2333 53.4099 68.0933 53.2499 68C53.1032 67.92 52.8565 67.88 52.5099 67.88H51.7499L51.8899 65.88H53.6099L53.5299 67.06C54.0365 67.06 54.4632 67.2 54.8099 67.48C55.1699 67.76 55.3499 68.1733 55.3499 68.72C55.3499 69.1466 55.2232 69.4933 54.9699 69.76C54.7165 70.04 54.3832 70.24 53.9699 70.36C53.5699 70.4933 53.1432 70.56 52.6899 70.56Z" fill="black"/>
<path d="M65.681 66.56C63.921 66.56 62.521 66.08 61.481 65.12C60.441 64.1466 59.921 62.76 59.921 60.96V57.6C59.921 55.8 60.441 54.42 61.481 53.46C62.521 52.4866 63.921 52 65.681 52C67.441 52 68.841 52.4866 69.881 53.46C70.921 54.42 71.441 55.8 71.441 57.6V60.96C71.441 62.76 70.921 64.1466 69.881 65.12C68.841 66.08 67.441 66.56 65.681 66.56ZM65.681 64.2C66.6676 64.2 67.4343 63.9133 67.981 63.34C68.5276 62.7666 68.801 62 68.801 61.04V57.52C68.801 56.56 68.5276 55.7933 67.981 55.22C67.4343 54.6466 66.6676 54.36 65.681 54.36C64.7076 54.36 63.941 54.6466 63.381 55.22C62.8343 55.7933 62.561 56.56 62.561 57.52V61.04C62.561 62 62.8343 62.7666 63.381 63.34C63.941 63.9133 64.7076 64.2 65.681 64.2Z" fill="black"/>
<path d="M78.8347 66.28V52.28H83.7347L86.1547 64.48H86.5147L88.9347 52.28H93.8347V66.28H91.2747V54.22H90.9147L88.5147 66.28H84.1547L81.7547 54.22H81.3947V66.28H78.8347Z" fill="black"/>
<path d="M101.871 66.56C100.725 66.56 99.7381 66.3533 98.9114 65.94C98.0981 65.5133 97.4714 64.9133 97.0314 64.14C96.6048 63.3533 96.3914 62.4266 96.3914 61.36V52.28H99.0314V61.44C99.0314 62.2933 99.2714 62.9666 99.7514 63.46C100.245 63.9533 100.951 64.2 101.871 64.2C102.791 64.2 103.491 63.9533 103.971 63.46C104.465 62.9666 104.711 62.2933 104.711 61.44V52.28H107.351V61.36C107.351 62.4266 107.131 63.3533 106.691 64.14C106.265 64.9133 105.638 65.5133 104.811 65.94C103.998 66.3533 103.018 66.56 101.871 66.56Z" fill="black"/>
<path d="M109.909 66.28V52.28H112.549V63.88H118.949V66.28H109.909Z" fill="black"/>
<path d="M120.749 66.28V52.28H123.389V58.06H128.589V52.28H131.229V66.28H128.589V60.46H123.389V66.28H120.749Z" fill="black"/>
<path d="M133.874 66.28V52.28H142.874V54.68H136.514V58.02H142.314V60.42H136.514V63.88H142.994V66.28H133.874Z" fill="black"/>
<path d="M144.948 66.28V52.28H151.028C151.908 52.28 152.675 52.4333 153.328 52.74C153.981 53.0466 154.488 53.48 154.848 54.04C155.208 54.6 155.388 55.26 155.388 56.02V56.26C155.388 57.1 155.188 57.78 154.788 58.3C154.388 58.82 153.895 59.2 153.308 59.44V59.8C153.841 59.8266 154.255 60.0133 154.548 60.36C154.841 60.6933 154.988 61.14 154.988 61.7V66.28H152.348V62.08C152.348 61.76 152.261 61.5 152.088 61.3C151.928 61.1 151.655 61 151.268 61H147.588V66.28H144.948ZM147.588 58.6H150.748C151.375 58.6 151.861 58.4333 152.208 58.1C152.568 57.7533 152.748 57.3 152.748 56.74V56.54C152.748 55.98 152.575 55.5333 152.228 55.2C151.881 54.8533 151.388 54.68 150.748 54.68H147.588V58.6Z" fill="black"/>
</g>
<defs>
<clipPath id="clip0_1_3">
<rect width="154.776" height="70.56" fill="white" transform="translate(0.612061)"/>
</clipPath>
</defs>
</svg>
